Coordinates
version=1
nRows=32
nColumns=12
inDegrees=yes

Units are S.I. units (second, meters, Newtons, ...)
Angles are in degrees

endheader
time	SC_y	SC_z	SC_x	AC_y	AC_z	AC_x	GH_y	GH_z	GH_yy	EL_x	PS_y
       0.0              -27.48          4.738          79.71          66.95         -2.938         -13.73          42.09          23.19         -26.27          10.61          86.24
   0.03703              -27.48          4.738           79.7          66.95         -2.937         -13.73          42.09          23.18         -26.26          10.62          86.24
   0.07405              -27.48          4.739          79.69          66.95         -2.937         -13.73          42.08          23.17         -26.24          10.63          86.24
    0.1111              -27.48          4.739          79.67          66.95         -2.937         -13.72          42.08          23.17         -26.23          10.64          86.24
    0.1481              -27.49           4.74          79.66          66.95         -2.937         -13.72          42.08          23.16         -26.22          10.65          86.25
    0.1851              -27.49           4.74          79.65          66.95         -2.937         -13.72          42.07          23.16          -26.2          10.67          86.25
    0.2222              -27.49          4.741          79.63          66.95         -2.936         -13.72          42.07          23.15         -26.19          10.68          86.25
    0.2592              -27.49          4.742          79.61          66.96         -2.936         -13.71          42.07          23.14         -26.17           10.7          86.25
    0.2962              -27.49          4.742           79.6          66.96         -2.936         -13.71          42.06          23.13         -26.15          10.72          86.26
    0.3332              -27.49          4.743          79.58          66.96         -2.936         -13.71          42.06          23.13         -26.13          10.73          86.26
    0.3703              -27.49          4.744          79.56          66.96         -2.935          -13.7          42.05          23.12         -26.11          10.75          86.27
    0.4073               -27.5          4.744          79.53          66.96         -2.935          -13.7          42.05          23.11         -26.08          10.77          86.27
    0.4443               -27.5          4.745          79.51          66.96         -2.935         -13.69          42.04           23.1         -26.06           10.8          86.28
    0.4814               -27.5          4.746          79.48          66.96         -2.934         -13.69          42.04          23.08         -26.03          10.82          86.28
    0.5184               -27.5          4.747          79.46          66.96         -2.934         -13.69          42.03          23.07          -26.0          10.85          86.29
    0.5554              -27.51          4.748          79.43          66.96         -2.933         -13.68          42.03          23.06         -25.97          10.88          86.29
    0.5924              -27.51           4.75          79.39          66.96         -2.933         -13.67          42.02          23.04         -25.94          10.91           86.3
    0.6295              -27.51          4.751          79.36          66.96         -2.932         -13.67          42.01          23.03          -25.9          10.94           86.3
    0.6665              -27.52          4.752          79.32          66.96         -2.932         -13.66           42.0          23.01         -25.86          10.98          86.31
    0.7035              -27.52          4.754          79.28          66.96         -2.931         -13.65          41.99          22.99         -25.81          11.02          86.32
    0.7405              -27.52          4.756          79.23          66.96          -2.93         -13.65          41.98          22.97         -25.77          11.06          86.33
    0.7776              -27.53          4.757          79.18          66.96         -2.929         -13.64          41.97          22.95         -25.71          11.11          86.34
    0.8146              -27.53           4.76          79.12          66.97         -2.929         -13.63          41.96          22.92         -25.65          11.17          86.35
    0.8516              -27.54          4.762          79.06          66.97         -2.928         -13.61          41.94          22.89         -25.59          11.23          86.36
    0.8887              -27.55          4.764          78.99          66.97         -2.926          -13.6          41.93          22.86         -25.51          11.29          86.38
    0.9257              -27.55          4.767          78.91          66.97         -2.925         -13.59          41.91          22.83         -25.43          11.37          86.39
    0.9627              -27.56           4.77          78.82          66.97         -2.924         -13.57          41.89          22.79         -25.34          11.45          86.41
    0.9997              -27.57          4.774          78.72          66.97         -2.922         -13.56          41.87          22.74         -25.23          11.55          86.43
     1.037              -27.58          4.778          78.61          66.98         -2.921         -13.54          41.84          22.69         -25.12          11.65          86.45
     1.074              -27.59          4.783          78.48          66.98         -2.919         -13.51          41.82          22.63         -24.98          11.77          86.48
     1.111               -27.6          4.788          78.34          66.98         -2.917         -13.49          41.78          22.57         -24.83          11.91           86.5
     1.148              -27.62          4.794          78.17          66.99         -2.914         -13.46          41.75           22.5         -24.66          12.07          86.54
